<svg width="494" height="274" viewBox="0 0 494 274" fill="none" xmlns="http://www.w3.org/2000/svg">
<path d="M53.1328 190C50.0078 190 48.4453 188.535 48.4453 185.605V110.371C48.4453 107.441 50.0078 105.977 53.1328 105.977H73.0547C88.0547 105.977 98.1719 107.832 103.406 111.543C108.68 115.215 111.316 120.879 111.316 128.535C111.316 133.887 109.344 138.027 105.398 140.957C101.492 143.887 97.7031 145.586 94.0312 146.055V146.23C97.5859 146.465 101.766 148.262 106.57 151.621C111.375 154.98 113.777 159.727 113.777 165.859C113.777 173.047 110.848 178.867 104.988 183.32C99.1289 187.773 89.4609 190 75.9844 190H53.1328ZM65.5547 175.703H74.1094C82.3906 175.703 88.0156 174.98 90.9844 173.535C93.9922 172.09 95.4961 169.16 95.4961 164.746C95.4961 160.605 93.7578 157.754 90.2812 156.191C86.8438 154.59 81.4531 153.789 74.1094 153.789H65.5547V175.703ZM65.5547 139.961H73.2305C78.2695 139.961 82.9766 139.082 87.3516 137.324C91.7656 135.566 93.9727 132.832 93.9727 129.121C93.9727 126.23 92.7422 124.043 90.2812 122.559C87.8594 121.035 82.1758 120.273 73.2305 120.273H65.5547V139.961Z" fill="#7C4DFF"/>
<path d="M14.1328 121C11.0078 121 9.44531 119.535 9.44531 116.605V41.3711C9.44531 38.4414 11.0078 36.9766 14.1328 36.9766H34.0547C49.0547 36.9766 59.1719 38.832 64.4062 42.543C69.6797 46.2148 72.3164 51.8789 72.3164 59.5352C72.3164 64.8867 70.3438 69.0273 66.3984 71.957C62.4922 74.8867 58.7031 76.5859 55.0312 77.0547V77.2305C58.5859 77.4648 62.7656 79.2617 67.5703 82.6211C72.375 85.9805 74.7773 90.7266 74.7773 96.8594C74.7773 104.047 71.8477 109.867 65.9883 114.32C60.1289 118.773 50.4609 121 36.9844 121H14.1328ZM26.5547 106.703H35.1094C43.3906 106.703 49.0156 105.98 51.9844 104.535C54.9922 103.09 56.4961 100.16 56.4961 95.7461C56.4961 91.6055 54.7578 88.7539 51.2812 87.1914C47.8438 85.5898 42.4531 84.7891 35.1094 84.7891H26.5547V106.703ZM26.5547 70.9609H34.2305C39.2695 70.9609 43.9766 70.082 48.3516 68.3242C52.7656 66.5664 54.9727 63.832 54.9727 60.1211C54.9727 57.2305 53.7422 55.043 51.2812 53.5586C48.8594 52.0352 43.1758 51.2734 34.2305 51.2734H26.5547V70.9609Z" fill="#B388FF"/>
<path d="M2.23828 232.992C1.26172 232.992 0.773438 232.569 0.773438 231.723V229.262C0.773438 228.415 1.26172 227.992 2.23828 227.992H22.3164C23.293 227.992 23.7812 228.415 23.7812 229.262V231.723C23.7812 232.569 23.293 232.992 22.3164 232.992H15.1289V254.926C15.1289 255.642 14.8034 256 14.1523 256H10.4023C9.7513 256 9.42578 255.642 9.42578 254.926V232.992H2.23828ZM20.8516 245.746C20.8516 242.452 21.6719 239.854 23.3125 237.953C24.9661 236.052 27.2969 235.102 30.3047 235.102C33.7943 235.102 36.3854 236 38.0781 237.797C39.7708 239.594 40.6172 242.484 40.6172 246.469C40.6172 247.25 40.2526 247.641 39.5234 247.641H26.6328C26.8411 249.802 27.375 251.163 28.2344 251.723C29.0938 252.283 30.0898 252.562 31.2227 252.562C32.3034 252.562 33.1302 252.419 33.7031 252.133C34.276 251.846 34.7578 251.456 35.1484 250.961C35.5911 250.388 36.138 250.297 36.7891 250.688L38.7422 251.879C39.5104 252.348 39.6211 252.908 39.0742 253.559C38.2799 254.509 37.349 255.219 36.2812 255.688C35.2135 256.156 33.5273 256.391 31.2227 256.391C27.4857 256.391 24.8229 255.44 23.2344 253.539C21.6458 251.638 20.8516 249.04 20.8516 245.746ZM26.6523 243.734H35.1484C35.1484 242.328 34.7969 241.182 34.0938 240.297C33.3906 239.398 32.2708 238.949 30.7344 238.949C29.5104 238.949 28.5404 239.379 27.8242 240.238C27.1081 241.085 26.7174 242.25 26.6523 243.734ZM43.7812 245.746C43.7812 242.426 44.6146 239.822 46.2812 237.934C47.9479 236.046 50.5065 235.102 53.957 235.102C55.9753 235.102 57.5443 235.368 58.6641 235.902C59.7839 236.436 60.6823 237.217 61.3594 238.246C61.763 238.858 61.6979 239.34 61.1641 239.691L59.0938 241.059C58.5078 241.449 57.9935 241.299 57.5508 240.609C57.3294 240.271 56.9062 239.906 56.2812 239.516C55.6562 239.125 54.8815 238.93 53.957 238.93C52.4857 238.93 51.3854 239.451 50.6562 240.492C49.9271 241.521 49.5625 243.272 49.5625 245.746C49.5625 248.22 49.9271 249.978 50.6562 251.02C51.3854 252.048 52.4857 252.562 53.957 252.562C55.0117 252.562 55.8646 252.341 56.5156 251.898C57.1667 251.456 57.7786 250.883 58.3516 250.18C58.8464 249.581 59.3672 249.496 59.9141 249.926L61.7305 251.352C62.2773 251.781 62.3099 252.354 61.8281 253.07C61.3203 253.826 60.4544 254.568 59.2305 255.297C58.0195 256.026 56.2617 256.391 53.957 256.391C50.5065 256.391 47.9479 255.447 46.2812 253.559C44.6146 251.671 43.7812 249.066 43.7812 245.746ZM67.2578 256C66.4766 256 66.0859 255.609 66.0859 254.828V228.344C66.0859 227.562 66.4766 227.172 67.2578 227.172H70.3828C71.1641 227.172 71.5547 227.562 71.5547 228.344V236.234C71.5547 236.755 71.5286 237.276 71.4766 237.797H71.5938C72.1927 236.768 72.9544 236.065 73.8789 235.688C74.8034 235.297 75.9167 235.102 77.2188 235.102C79.25 235.102 80.9297 235.74 82.2578 237.016C83.5859 238.292 84.25 240.622 84.25 244.008V254.828C84.25 255.609 83.8594 256 83.0781 256H79.9531C79.1719 256 78.7812 255.609 78.7812 254.828V245.414C78.7812 242.576 78.5859 240.785 78.1953 240.043C77.8047 239.301 76.9648 238.93 75.6758 238.93C74.3086 238.93 73.2799 239.464 72.5898 240.531C71.8997 241.586 71.5547 243.786 71.5547 247.133V254.828C71.5547 255.609 71.1641 256 70.3828 256H67.2578ZM90.6953 256C89.9141 256 89.5234 255.609 89.5234 254.828V236.664C89.5234 235.883 89.9141 235.492 90.6953 235.492H93.7812C94.5625 235.492 94.9531 235.883 94.9531 236.664V237.797H95.0312C95.6302 236.768 96.3919 236.065 97.3164 235.688C98.2409 235.297 99.3542 235.102 100.656 235.102C102.688 235.102 104.367 235.74 105.695 237.016C107.023 238.292 107.688 240.622 107.688 244.008V254.828C107.688 255.609 107.297 256 106.516 256H103.391C102.609 256 102.219 255.609 102.219 254.828V245.414C102.219 242.576 102.023 240.785 101.633 240.043C101.242 239.301 100.402 238.93 99.1133 238.93C97.7461 238.93 96.7174 239.464 96.0273 240.531C95.3372 241.586 94.9922 243.786 94.9922 247.133V254.828C94.9922 255.609 94.6016 256 93.8203 256H90.6953ZM114.133 256C113.352 256 112.961 255.609 112.961 254.828V236.664C112.961 235.883 113.352 235.492 114.133 235.492H117.258C118.039 235.492 118.43 235.883 118.43 236.664V254.828C118.43 255.609 118.039 256 117.258 256H114.133ZM114.133 232.484C113.352 232.484 112.961 232.094 112.961 231.312V228.812C112.961 228.031 113.352 227.641 114.133 227.641H117.258C118.039 227.641 118.43 228.031 118.43 228.812V231.312C118.43 232.094 118.039 232.484 117.258 232.484H114.133ZM122.648 245.746C122.648 242.426 123.482 239.822 125.148 237.934C126.815 236.046 129.374 235.102 132.824 235.102C134.842 235.102 136.411 235.368 137.531 235.902C138.651 236.436 139.549 237.217 140.227 238.246C140.63 238.858 140.565 239.34 140.031 239.691L137.961 241.059C137.375 241.449 136.861 241.299 136.418 240.609C136.197 240.271 135.773 239.906 135.148 239.516C134.523 239.125 133.749 238.93 132.824 238.93C131.353 238.93 130.253 239.451 129.523 240.492C128.794 241.521 128.43 243.272 128.43 245.746C128.43 248.22 128.794 249.978 129.523 251.02C130.253 252.048 131.353 252.562 132.824 252.562C133.879 252.562 134.732 252.341 135.383 251.898C136.034 251.456 136.646 250.883 137.219 250.18C137.714 249.581 138.234 249.496 138.781 249.926L140.598 251.352C141.145 251.781 141.177 252.354 140.695 253.07C140.188 253.826 139.322 254.568 138.098 255.297C136.887 256.026 135.129 256.391 132.824 256.391C129.374 256.391 126.815 255.447 125.148 253.559C123.482 251.671 122.648 249.066 122.648 245.746ZM143.859 250.531C143.859 247.927 145.103 246.039 147.59 244.867C150.077 243.695 152.915 243.07 156.105 242.992V242.211C156.105 241.013 155.806 240.167 155.207 239.672C154.608 239.177 153.775 238.93 152.707 238.93C151.952 238.93 151.281 239.04 150.695 239.262C150.122 239.47 149.621 239.717 149.191 240.004C148.775 240.277 148.397 240.557 148.059 240.844C147.46 241.365 146.965 241.391 146.574 240.922L144.953 238.93C144.549 238.435 144.647 237.927 145.246 237.406C145.702 237.003 146.229 236.651 146.828 236.352C147.44 236.052 148.247 235.772 149.25 235.512C150.253 235.238 151.555 235.102 153.156 235.102C155.865 235.102 157.941 235.727 159.387 236.977C160.845 238.227 161.574 240.069 161.574 242.504V254.828C161.574 255.609 161.184 256 160.402 256H157.199C156.496 256 156.145 255.609 156.145 254.828V254.242H156.105C155.337 254.984 154.413 255.531 153.332 255.883C152.264 256.221 151.281 256.391 150.383 256.391C148.247 256.391 146.626 255.87 145.52 254.828C144.413 253.773 143.859 252.341 143.859 250.531ZM149.641 250.414C149.641 250.87 149.732 251.267 149.914 251.605C150.096 251.931 150.383 252.172 150.773 252.328C151.164 252.484 151.6 252.562 152.082 252.562C152.746 252.562 153.391 252.471 154.016 252.289C154.641 252.107 155.337 251.677 156.105 251V246.762C153.918 247.009 152.453 247.328 151.711 247.719C150.969 248.109 150.435 248.513 150.109 248.93C149.797 249.346 149.641 249.841 149.641 250.414ZM168.078 256C167.297 256 166.906 255.609 166.906 254.828V231.762C166.906 231.176 167.043 230.642 167.316 230.16L168.82 227.523C169.107 227.029 169.445 226.781 169.836 226.781H171.203C171.984 226.781 172.375 227.172 172.375 227.953V254.828C172.375 255.609 171.984 256 171.203 256H168.078ZM190.949 254.633C190.311 254.177 190.135 253.689 190.422 253.168L191.418 251.352C191.77 250.701 192.316 250.622 193.059 251.117C193.801 251.612 194.673 251.977 195.676 252.211C196.691 252.445 197.616 252.562 198.449 252.562C199.035 252.562 199.582 252.504 200.09 252.387C200.598 252.27 201.027 252.042 201.379 251.703C201.73 251.365 201.906 250.87 201.906 250.219C201.906 249.828 201.802 249.496 201.594 249.223C201.385 248.949 201.118 248.741 200.793 248.598C200.467 248.454 200.122 248.337 199.758 248.246C199.276 248.129 198.579 247.934 197.668 247.66C196.77 247.387 195.904 247.068 195.07 246.703C194.38 246.404 193.703 245.987 193.039 245.453C192.388 244.906 191.906 244.301 191.594 243.637C191.294 242.973 191.145 242.152 191.145 241.176C191.145 239.861 191.522 238.708 192.277 237.719C193.046 236.729 194.035 236.046 195.246 235.668C196.457 235.29 197.967 235.102 199.777 235.102C201.001 235.102 202.193 235.277 203.352 235.629C204.51 235.98 205.337 236.312 205.832 236.625C206.613 237.12 206.809 237.647 206.418 238.207L205.227 239.945C204.862 240.466 204.276 240.505 203.469 240.062C202.857 239.724 202.251 239.451 201.652 239.242C201.066 239.034 200.409 238.93 199.68 238.93C199.185 238.93 198.71 238.982 198.254 239.086C197.798 239.19 197.408 239.385 197.082 239.672C196.77 239.958 196.613 240.336 196.613 240.805C196.613 241.299 196.757 241.69 197.043 241.977C197.342 242.25 197.681 242.452 198.059 242.582C198.449 242.712 198.82 242.836 199.172 242.953C199.901 243.188 200.637 243.415 201.379 243.637C202.121 243.845 202.876 244.099 203.645 244.398C204.309 244.659 204.953 245.03 205.578 245.512C206.203 245.993 206.659 246.605 206.945 247.348C207.232 248.09 207.375 248.936 207.375 249.887C207.375 251.15 206.997 252.322 206.242 253.402C205.487 254.483 204.491 255.251 203.254 255.707C202.017 256.163 200.578 256.391 198.938 256.391C197.102 256.391 195.539 256.26 194.25 256C192.961 255.74 191.861 255.284 190.949 254.633ZM209.914 245.746C209.914 242.426 210.747 239.822 212.414 237.934C214.081 236.046 216.639 235.102 220.09 235.102C222.108 235.102 223.677 235.368 224.797 235.902C225.917 236.436 226.815 237.217 227.492 238.246C227.896 238.858 227.831 239.34 227.297 239.691L225.227 241.059C224.641 241.449 224.126 241.299 223.684 240.609C223.462 240.271 223.039 239.906 222.414 239.516C221.789 239.125 221.014 238.93 220.09 238.93C218.618 238.93 217.518 239.451 216.789 240.492C216.06 241.521 215.695 243.272 215.695 245.746C215.695 248.22 216.06 249.978 216.789 251.02C217.518 252.048 218.618 252.562 220.09 252.562C221.145 252.562 221.997 252.341 222.648 251.898C223.299 251.456 223.911 250.883 224.484 250.18C224.979 249.581 225.5 249.496 226.047 249.926L227.863 251.352C228.41 251.781 228.443 252.354 227.961 253.07C227.453 253.826 226.587 254.568 225.363 255.297C224.152 256.026 222.395 256.391 220.09 256.391C216.639 256.391 214.081 255.447 212.414 253.559C210.747 251.671 209.914 249.066 209.914 245.746ZM233.391 256C232.609 256 232.219 255.609 232.219 254.828V228.344C232.219 227.562 232.609 227.172 233.391 227.172H236.516C237.297 227.172 237.688 227.562 237.688 228.344V236.234C237.688 236.755 237.661 237.276 237.609 237.797H237.727C238.326 236.768 239.087 236.065 240.012 235.688C240.936 235.297 242.049 235.102 243.352 235.102C245.383 235.102 247.062 235.74 248.391 237.016C249.719 238.292 250.383 240.622 250.383 244.008V254.828C250.383 255.609 249.992 256 249.211 256H246.086C245.305 256 244.914 255.609 244.914 254.828V245.414C244.914 242.576 244.719 240.785 244.328 240.043C243.938 239.301 243.098 238.93 241.809 238.93C240.441 238.93 239.413 239.464 238.723 240.531C238.033 241.586 237.688 243.786 237.688 247.133V254.828C237.688 255.609 237.297 256 236.516 256H233.391ZM254.562 245.746C254.562 242.426 255.415 239.822 257.121 237.934C258.84 236.046 261.392 235.102 264.777 235.102C268.163 235.102 270.708 236.046 272.414 237.934C274.133 239.822 274.992 242.426 274.992 245.746C274.992 249.066 274.133 251.671 272.414 253.559C270.708 255.447 268.163 256.391 264.777 256.391C261.392 256.391 258.84 255.447 257.121 253.559C255.415 251.671 254.562 249.066 254.562 245.746ZM260.344 245.746C260.344 248.22 260.721 249.978 261.477 251.02C262.245 252.048 263.345 252.562 264.777 252.562C266.21 252.562 267.303 252.048 268.059 251.02C268.827 249.978 269.211 248.22 269.211 245.746C269.211 243.272 268.827 241.521 268.059 240.492C267.303 239.451 266.21 238.93 264.777 238.93C263.345 238.93 262.245 239.451 261.477 240.492C260.721 241.521 260.344 243.272 260.344 245.746ZM278.117 245.746C278.117 242.426 278.97 239.822 280.676 237.934C282.395 236.046 284.947 235.102 288.332 235.102C291.717 235.102 294.263 236.046 295.969 237.934C297.688 239.822 298.547 242.426 298.547 245.746C298.547 249.066 297.688 251.671 295.969 253.559C294.263 255.447 291.717 256.391 288.332 256.391C284.947 256.391 282.395 255.447 280.676 253.559C278.97 251.671 278.117 249.066 278.117 245.746ZM283.898 245.746C283.898 248.22 284.276 249.978 285.031 251.02C285.799 252.048 286.9 252.562 288.332 252.562C289.764 252.562 290.858 252.048 291.613 251.02C292.382 249.978 292.766 248.22 292.766 245.746C292.766 243.272 292.382 241.521 291.613 240.492C290.858 239.451 289.764 238.93 288.332 238.93C286.9 238.93 285.799 239.451 285.031 240.492C284.276 241.521 283.898 243.272 283.898 245.746ZM303.938 256C303.156 256 302.766 255.609 302.766 254.828V231.762C302.766 231.176 302.902 230.642 303.176 230.16L304.68 227.523C304.966 227.029 305.305 226.781 305.695 226.781H307.062C307.844 226.781 308.234 227.172 308.234 227.953V254.828C308.234 255.609 307.844 256 307.062 256H303.938Z" fill="#111111"/>
<path d="M315.068 173C313.506 173 312.725 172.268 312.725 170.803V133.186C312.725 131.721 313.506 130.988 315.068 130.988H325.029C332.529 130.988 337.588 131.916 340.205 133.771C342.842 135.607 344.16 138.439 344.16 142.268C344.16 144.943 343.174 147.014 341.201 148.479C339.248 149.943 337.354 150.793 335.518 151.027V151.115C337.295 151.232 339.385 152.131 341.787 153.811C344.189 155.49 345.391 157.863 345.391 160.93C345.391 164.523 343.926 167.434 340.996 169.66C338.066 171.887 333.232 173 326.494 173H315.068ZM321.279 165.852H325.557C329.697 165.852 332.51 165.49 333.994 164.768C335.498 164.045 336.25 162.58 336.25 160.373C336.25 158.303 335.381 156.877 333.643 156.096C331.924 155.295 329.229 154.895 325.557 154.895H321.279V165.852ZM321.279 147.98H325.117C327.637 147.98 329.99 147.541 332.178 146.662C334.385 145.783 335.488 144.416 335.488 142.561C335.488 141.115 334.873 140.021 333.643 139.279C332.432 138.518 329.59 138.137 325.117 138.137H321.279V147.98ZM354.209 173C353.037 173 352.451 172.414 352.451 171.242V143.996C352.451 142.824 353.037 142.238 354.209 142.238H358.838C360.01 142.238 360.596 142.824 360.596 143.996V146.398H360.713C361.221 145.148 362.07 144.045 363.262 143.088C364.453 142.131 365.859 141.652 367.48 141.652C368.594 141.652 369.512 141.789 370.234 142.062C370.918 142.316 371.182 142.785 371.025 143.469L370.205 146.955C370.029 147.736 369.502 147.971 368.623 147.658C368.115 147.482 367.627 147.395 367.158 147.395C365.283 147.395 363.73 148.518 362.5 150.764C361.27 153.01 360.654 156.281 360.654 160.578V171.242C360.654 172.414 360.068 173 358.896 173H354.209ZM375.42 160.227V143.996C375.42 142.824 376.006 142.238 377.178 142.238H381.865C383.037 142.238 383.623 142.824 383.623 143.996V158.117C383.623 162.375 383.916 165.061 384.502 166.174C385.088 167.287 386.318 167.844 388.193 167.844C390.186 167.844 391.699 167.053 392.734 165.471C393.77 163.869 394.287 160.559 394.287 155.539V143.996C394.287 142.824 394.873 142.238 396.045 142.238H400.732C401.904 142.238 402.49 142.824 402.49 143.996V171.242C402.49 172.414 401.904 173 400.732 173H396.104C394.932 173 394.346 172.414 394.346 171.242V169.543H394.229C393.33 171.086 392.188 172.15 390.801 172.736C389.414 173.303 387.773 173.586 385.879 173.586C382.891 173.586 380.4 172.629 378.408 170.715C376.416 168.801 375.42 165.305 375.42 160.227ZM412.217 173C411.045 173 410.459 172.414 410.459 171.242V143.996C410.459 142.824 411.045 142.238 412.217 142.238H416.846C418.018 142.238 418.604 142.824 418.604 143.996V145.695H418.721C419.619 144.152 420.762 143.098 422.148 142.531C423.535 141.945 425.205 141.652 427.158 141.652C430.205 141.652 432.725 142.609 434.717 144.523C436.709 146.438 437.705 149.934 437.705 155.012V171.242C437.705 172.414 437.119 173 435.947 173H431.26C430.088 173 429.502 172.414 429.502 171.242V157.121C429.502 152.863 429.209 150.178 428.623 149.064C428.037 147.951 426.777 147.395 424.844 147.395C422.793 147.395 421.25 148.195 420.215 149.797C419.18 151.379 418.662 154.68 418.662 159.699V171.242C418.662 172.414 418.076 173 416.904 173H412.217ZM443.975 157.619C443.975 152.639 445.254 148.732 447.812 145.9C450.391 143.068 454.219 141.652 459.297 141.652C464.375 141.652 468.193 143.068 470.752 145.9C473.33 148.732 474.619 152.639 474.619 157.619C474.619 162.6 473.33 166.506 470.752 169.338C468.193 172.17 464.375 173.586 459.297 173.586C454.219 173.586 450.391 172.17 447.812 169.338C445.254 166.506 443.975 162.6 443.975 157.619ZM452.646 157.619C452.646 161.33 453.213 163.967 454.346 165.529C455.498 167.072 457.148 167.844 459.297 167.844C461.445 167.844 463.086 167.072 464.219 165.529C465.371 163.967 465.947 161.33 465.947 157.619C465.947 153.908 465.371 151.281 464.219 149.738C463.086 148.176 461.445 147.395 459.297 147.395C457.148 147.395 455.498 148.176 454.346 149.738C453.213 151.281 452.646 153.908 452.646 157.619Z" fill="#7C4DFF"/>
<path d="M222.717 157.619C222.717 153.322 223.645 149.592 225.5 146.428C227.375 143.244 230.607 141.652 235.197 141.652C236.955 141.652 238.459 141.906 239.709 142.414C240.959 142.922 242.092 144.016 243.107 145.695H243.225C243.146 144.914 243.107 144.133 243.107 143.352V131.516C243.107 130.344 243.693 129.758 244.865 129.758H249.553C250.725 129.758 251.311 130.344 251.311 131.516V171.242C251.311 172.414 250.725 173 249.553 173H244.924C243.947 173 243.42 172.414 243.342 171.242L243.225 169.543H243.107C242.092 171.223 240.959 172.316 239.709 172.824C238.459 173.332 236.955 173.586 235.197 173.586C230.607 173.586 227.375 172.004 225.5 168.84C223.645 165.656 222.717 161.916 222.717 157.619ZM231.389 157.619C231.389 160.744 231.789 163.234 232.59 165.09C233.41 166.926 235.139 167.844 237.775 167.844C239.24 167.844 240.49 167.023 241.525 165.383C242.58 163.723 243.107 161.574 243.107 158.938V156.301C243.107 153.664 242.58 151.525 241.525 149.885C240.49 148.225 239.24 147.395 237.775 147.395C235.139 147.395 233.41 148.322 232.59 150.178C231.789 152.014 231.389 154.494 231.389 157.619Z" fill="#B388FF"/>
<path d="M257.639 157.619C257.639 152.639 258.918 148.732 261.477 145.9C264.055 143.068 267.883 141.652 272.961 141.652C278.039 141.652 281.857 143.068 284.416 145.9C286.994 148.732 288.283 152.639 288.283 157.619C288.283 162.6 286.994 166.506 284.416 169.338C281.857 172.17 278.039 173.586 272.961 173.586C267.883 173.586 264.055 172.17 261.477 169.338C258.918 166.506 257.639 162.6 257.639 157.619ZM266.311 157.619C266.311 161.33 266.877 163.967 268.01 165.529C269.162 167.072 270.812 167.844 272.961 167.844C275.109 167.844 276.75 167.072 277.883 165.529C279.035 163.967 279.611 161.33 279.611 157.619C279.611 153.908 279.035 151.281 277.883 149.738C276.75 148.176 275.109 147.395 272.961 147.395C270.812 147.395 269.162 148.176 268.01 149.738C266.877 151.281 266.311 153.908 266.311 157.619Z" fill="#7C4DFF"/>
<path d="M227.303 121C225.74 121 224.959 120.268 224.959 118.803V81.1855C224.959 79.7207 225.74 78.9883 227.303 78.9883H237.264C244.764 78.9883 249.822 79.916 252.439 81.7715C255.076 83.6074 256.395 86.4395 256.395 90.2676C256.395 92.9434 255.408 95.0137 253.436 96.4785C251.482 97.9434 249.588 98.793 247.752 99.0273V99.1152C249.529 99.2324 251.619 100.131 254.021 101.811C256.424 103.49 257.625 105.863 257.625 108.93C257.625 112.523 256.16 115.434 253.23 117.66C250.301 119.887 245.467 121 238.729 121H227.303ZM233.514 113.852H237.791C241.932 113.852 244.744 113.49 246.229 112.768C247.732 112.045 248.484 110.58 248.484 108.373C248.484 106.303 247.615 104.877 245.877 104.096C244.158 103.295 241.463 102.895 237.791 102.895H233.514V113.852ZM233.514 95.9805H237.352C239.871 95.9805 242.225 95.541 244.412 94.6621C246.619 93.7832 247.723 92.416 247.723 90.5605C247.723 89.1152 247.107 88.0215 245.877 87.2793C244.666 86.5176 241.824 86.1367 237.352 86.1367H233.514V95.9805ZM266.443 121C265.271 121 264.686 120.414 264.686 119.242V91.9961C264.686 90.8242 265.271 90.2383 266.443 90.2383H271.072C272.244 90.2383 272.83 90.8242 272.83 91.9961V94.3984H272.947C273.455 93.1484 274.305 92.0449 275.496 91.0879C276.688 90.1309 278.094 89.6523 279.715 89.6523C280.828 89.6523 281.746 89.7891 282.469 90.0625C283.152 90.3164 283.416 90.7852 283.26 91.4688L282.439 94.9551C282.264 95.7363 281.736 95.9707 280.857 95.6582C280.35 95.4824 279.861 95.3945 279.393 95.3945C277.518 95.3945 275.965 96.5176 274.734 98.7637C273.504 101.01 272.889 104.281 272.889 108.578V119.242C272.889 120.414 272.303 121 271.131 121H266.443ZM286.072 105.619C286.072 100.639 287.352 96.7324 289.91 93.9004C292.488 91.0684 296.316 89.6523 301.395 89.6523C306.473 89.6523 310.291 91.0684 312.85 93.9004C315.428 96.7324 316.717 100.639 316.717 105.619C316.717 110.6 315.428 114.506 312.85 117.338C310.291 120.17 306.473 121.586 301.395 121.586C296.316 121.586 292.488 120.17 289.91 117.338C287.352 114.506 286.072 110.6 286.072 105.619ZM294.744 105.619C294.744 109.33 295.311 111.967 296.443 113.529C297.596 115.072 299.246 115.844 301.395 115.844C303.543 115.844 305.184 115.072 306.316 113.529C307.469 111.967 308.045 109.33 308.045 105.619C308.045 101.908 307.469 99.2812 306.316 97.7383C305.184 96.1758 303.543 95.3945 301.395 95.3945C299.246 95.3945 297.596 96.1758 296.443 97.7383C295.311 99.2812 294.744 101.908 294.744 105.619ZM322.02 96.0977C320.867 96.0977 320.291 95.6094 320.291 94.6328V91.7031C320.291 90.7266 320.867 90.2383 322.02 90.2383H324.012V89.2129C324.012 88.334 324.217 87.5332 324.627 86.8105L326.883 82.8555C327.312 82.1133 327.82 81.7422 328.406 81.7422H330.457C331.629 81.7422 332.215 82.3281 332.215 83.5V90.2383H336.961C338.113 90.2383 338.689 90.7266 338.689 91.7031V94.6328C338.689 95.6094 338.113 96.0977 336.961 96.0977H332.215V110.629C332.215 112.621 332.352 114.057 332.625 114.936C332.918 115.795 333.66 116.225 334.852 116.225C335.457 116.225 336.141 116.127 336.902 115.932C337.664 115.717 338.26 115.512 338.689 115.316C339.373 115.004 339.822 115.229 340.037 115.99L340.916 119.33C341.092 119.994 340.838 120.482 340.154 120.795C339.51 121.088 338.621 121.352 337.488 121.586C336.375 121.84 335.252 121.967 334.119 121.967C331.326 121.967 328.943 121.391 326.971 120.238C324.998 119.086 324.012 116.713 324.012 113.119V96.0977H322.02ZM348.182 121C347.01 121 346.424 120.414 346.424 119.242V91.9961C346.424 90.8242 347.01 90.2383 348.182 90.2383H352.869C354.041 90.2383 354.627 90.8242 354.627 91.9961V119.242C354.627 120.414 354.041 121 352.869 121H348.182ZM348.182 85.7266C347.01 85.7266 346.424 85.1406 346.424 83.9688V80.2188C346.424 79.0469 347.01 78.4609 348.182 78.4609H352.869C354.041 78.4609 354.627 79.0469 354.627 80.2188V83.9688C354.627 85.1406 354.041 85.7266 352.869 85.7266H348.182ZM364.354 121C363.182 121 362.596 120.414 362.596 119.242V91.9961C362.596 90.8242 363.182 90.2383 364.354 90.2383H368.982C370.154 90.2383 370.74 90.8242 370.74 91.9961V93.6953H370.857C371.756 92.1523 372.898 91.0977 374.285 90.5312C375.672 89.9453 377.342 89.6523 379.295 89.6523C382.342 89.6523 384.861 90.6094 386.854 92.5234C388.846 94.4375 389.842 97.9336 389.842 103.012V119.242C389.842 120.414 389.256 121 388.084 121H383.396C382.225 121 381.639 120.414 381.639 119.242V105.121C381.639 100.863 381.346 98.1777 380.76 97.0645C380.174 95.9512 378.914 95.3945 376.98 95.3945C374.93 95.3945 373.387 96.1953 372.352 97.7969C371.316 99.3789 370.799 102.68 370.799 107.699V119.242C370.799 120.414 370.213 121 369.041 121H364.354ZM399.51 121C398.338 121 397.752 120.414 397.752 119.242V79.5156C397.752 78.3438 398.338 77.7578 399.51 77.7578H404.197C405.369 77.7578 405.955 78.3438 405.955 79.5156V91.3516C405.955 92.1328 405.916 92.9141 405.838 93.6953H406.014C406.912 92.1523 408.055 91.0977 409.441 90.5312C410.828 89.9453 412.498 89.6523 414.451 89.6523C417.498 89.6523 420.018 90.6094 422.01 92.5234C424.002 94.4375 424.998 97.9336 424.998 103.012V119.242C424.998 120.414 424.412 121 423.24 121H418.553C417.381 121 416.795 120.414 416.795 119.242V105.121C416.795 100.863 416.502 98.1777 415.916 97.0645C415.33 95.9512 414.07 95.3945 412.137 95.3945C410.086 95.3945 408.543 96.1953 407.508 97.7969C406.473 99.3789 405.955 102.68 405.955 107.699V119.242C405.955 120.414 405.369 121 404.197 121H399.51ZM431.268 105.619C431.268 100.639 432.547 96.7324 435.105 93.9004C437.684 91.0684 441.512 89.6523 446.59 89.6523C451.668 89.6523 455.486 91.0684 458.045 93.9004C460.623 96.7324 461.912 100.639 461.912 105.619C461.912 110.6 460.623 114.506 458.045 117.338C455.486 120.17 451.668 121.586 446.59 121.586C441.512 121.586 437.684 120.17 435.105 117.338C432.547 114.506 431.268 110.6 431.268 105.619ZM439.939 105.619C439.939 109.33 440.506 111.967 441.639 113.529C442.791 115.072 444.441 115.844 446.59 115.844C448.738 115.844 450.379 115.072 451.512 113.529C452.664 111.967 453.24 109.33 453.24 105.619C453.24 101.908 452.664 99.2812 451.512 97.7383C450.379 96.1758 448.738 95.3945 446.59 95.3945C444.441 95.3945 442.791 96.1758 441.639 97.7383C440.506 99.2812 439.939 101.908 439.939 105.619ZM467.625 118.949C466.668 118.266 466.404 117.533 466.834 116.752L468.328 114.027C468.855 113.051 469.676 112.934 470.789 113.676C471.902 114.418 473.211 114.965 474.715 115.316C476.238 115.668 477.625 115.844 478.875 115.844C479.754 115.844 480.574 115.756 481.336 115.58C482.098 115.404 482.742 115.062 483.27 114.555C483.797 114.047 484.061 113.305 484.061 112.328C484.061 111.742 483.904 111.244 483.592 110.834C483.279 110.424 482.879 110.111 482.391 109.896C481.902 109.682 481.385 109.506 480.838 109.369C480.115 109.193 479.07 108.9 477.703 108.49C476.355 108.08 475.057 107.602 473.807 107.055C472.771 106.605 471.756 105.98 470.76 105.18C469.783 104.359 469.061 103.451 468.592 102.455C468.143 101.459 467.918 100.229 467.918 98.7637C467.918 96.791 468.484 95.0625 469.617 93.5781C470.77 92.0938 472.254 91.0684 474.07 90.502C475.887 89.9355 478.152 89.6523 480.867 89.6523C482.703 89.6523 484.49 89.916 486.229 90.4434C487.967 90.9707 489.207 91.4688 489.949 91.9375C491.121 92.6797 491.414 93.4707 490.828 94.3105L489.041 96.918C488.494 97.6992 487.615 97.7578 486.404 97.0938C485.486 96.5859 484.578 96.1758 483.68 95.8633C482.801 95.5508 481.814 95.3945 480.721 95.3945C479.979 95.3945 479.266 95.4727 478.582 95.6289C477.898 95.7852 477.312 96.0781 476.824 96.5078C476.355 96.9375 476.121 97.5039 476.121 98.207C476.121 98.9492 476.336 99.5352 476.766 99.9648C477.215 100.375 477.723 100.678 478.289 100.873C478.875 101.068 479.432 101.254 479.959 101.43C481.053 101.781 482.156 102.123 483.27 102.455C484.383 102.768 485.516 103.148 486.668 103.598C487.664 103.988 488.631 104.545 489.568 105.268C490.506 105.99 491.189 106.908 491.619 108.021C492.049 109.135 492.264 110.404 492.264 111.83C492.264 113.725 491.697 115.482 490.564 117.104C489.432 118.725 487.938 119.877 486.082 120.561C484.227 121.244 482.068 121.586 479.607 121.586C476.854 121.586 474.51 121.391 472.576 121C470.643 120.609 468.992 119.926 467.625 118.949Z" fill="#B388FF"/>
<path d="M159.57 172.781C157.617 172.781 156.641 171.609 156.641 169.266V62.8594C156.641 60.5156 157.617 59.3438 159.57 59.3438H165.43C167.383 59.3438 168.359 60.5156 168.359 62.8594V169.266C168.359 171.609 167.383 172.781 165.43 172.781H159.57Z" fill="black"/>
</svg>
