<svg width="40" height="81" viewBox="0 0 40 81" fill="none" xmlns="http://www.w3.org/2000/svg">
<path d="M17.7109 63C16.6693 63 16.1484 62.5117 16.1484 61.5352V36.457C16.1484 35.4805 16.6693 34.9922 17.7109 34.9922H24.3516C29.3516 34.9922 32.724 35.6107 34.4688 36.8477C36.2266 38.0716 37.1055 39.9596 37.1055 42.5117C37.1055 44.2956 36.4479 45.6758 35.1328 46.6523C33.8307 47.6289 32.5677 48.1953 31.3438 48.3516V48.4102C32.5286 48.4883 33.9219 49.0872 35.5234 50.207C37.125 51.3268 37.9258 52.9089 37.9258 54.9531C37.9258 57.349 36.9492 59.2891 34.9961 60.7734C33.043 62.2578 29.8203 63 25.3281 63H17.7109ZM21.8516 58.2344H24.7031C27.4635 58.2344 29.3385 57.9935 30.3281 57.5117C31.3307 57.0299 31.832 56.0534 31.832 54.582C31.832 53.2018 31.2526 52.2513 30.0938 51.7305C28.9479 51.1966 27.151 50.9297 24.7031 50.9297H21.8516V58.2344ZM21.8516 46.3203H24.4102C26.0898 46.3203 27.6589 46.0273 29.1172 45.4414C30.5885 44.8555 31.3242 43.944 31.3242 42.707C31.3242 41.7435 30.9141 41.0143 30.0938 40.5195C29.2865 40.0117 27.3919 39.7578 24.4102 39.7578H21.8516V46.3203Z" fill="#7C4DFF"/>
<path d="M4.71094 40C3.66927 40 3.14844 39.5117 3.14844 38.5352V13.457C3.14844 12.4805 3.66927 11.9922 4.71094 11.9922H11.3516C16.3516 11.9922 19.724 12.6107 21.4688 13.8477C23.2266 15.0716 24.1055 16.9596 24.1055 19.5117C24.1055 21.2956 23.4479 22.6758 22.1328 23.6523C20.8307 24.6289 19.5677 25.1953 18.3438 25.3516V25.4102C19.5286 25.4883 20.9219 26.0872 22.5234 27.207C24.125 28.3268 24.9258 29.9089 24.9258 31.9531C24.9258 34.349 23.9492 36.2891 21.9961 37.7734C20.043 39.2578 16.8203 40 12.3281 40H4.71094ZM8.85156 35.2344H11.7031C14.4635 35.2344 16.3385 34.9935 17.3281 34.5117C18.3307 34.0299 18.832 33.0534 18.832 31.582C18.832 30.2018 18.2526 29.2513 17.0938 28.7305C15.9479 28.1966 14.151 27.9297 11.7031 27.9297H8.85156V35.2344ZM8.85156 23.3203H11.4102C13.0898 23.3203 14.6589 23.0273 16.1172 22.4414C17.5885 21.8555 18.3242 20.944 18.3242 19.707C18.3242 18.7435 17.9141 18.0143 17.0938 17.5195C16.2865 17.0117 14.3919 16.7578 11.4102 16.7578H8.85156V23.3203Z" fill="#B388FF"/>
</svg>
